<svg width="184" height="33" viewBox="0 0 184 33" fill="none" xmlns="http://www.w3.org/2000/svg">
<g clip-path="url(#clip0_428_17893)">
<path d="M40.9912 14.4083C40.9912 12.5083 41.4154 10.8111 42.264 9.31686C43.131 7.80418 44.3025 6.63278 45.7782 5.80265C47.2725 4.95407 48.942 4.52979 50.7867 4.52979C52.945 4.52979 54.8359 5.08321 56.4592 6.19005C58.0826 7.29689 59.2171 8.82802 59.8628 10.7834H55.4078C54.965 9.86107 54.3378 9.16929 53.5261 8.70811C52.7329 8.24693 51.8105 8.01632 50.759 8.01632C49.6337 8.01632 48.6284 8.28382 47.7429 8.81879C46.8759 9.33532 46.1933 10.0732 45.6952 11.0325C45.2156 11.9917 44.9758 13.117 44.9758 14.4083C44.9758 15.6812 45.2156 16.8065 45.6952 17.7842C46.1933 18.7435 46.8759 19.4906 47.7429 20.0256C48.6284 20.5421 49.6337 20.8003 50.759 20.8003C51.8105 20.8003 52.7329 20.5698 53.5261 20.1086C54.3378 19.6289 54.965 18.9279 55.4078 18.0056H59.8628C59.2171 19.9794 58.0826 21.5198 56.4592 22.6266C54.8543 23.715 52.9635 24.2592 50.7867 24.2592C48.942 24.2592 47.2725 23.8442 45.7782 23.014C44.3025 22.1654 43.131 20.994 42.264 19.4998C41.4154 18.0056 40.9912 16.3084 40.9912 14.4083Z" fill="white"/>
<path d="M69.9787 24.3422C68.5029 24.3422 67.1747 24.0194 65.9941 23.3737C64.8134 22.7096 63.8818 21.7781 63.1993 20.579C62.5352 19.3799 62.2031 17.9963 62.2031 16.4283C62.2031 14.8603 62.5444 13.4767 63.227 12.2777C63.928 11.0786 64.878 10.1562 66.0771 9.51056C67.2762 8.84645 68.6136 8.5144 70.0894 8.5144C71.5652 8.5144 72.9026 8.84645 74.1017 9.51056C75.3008 10.1562 76.2416 11.0786 76.9241 12.2777C77.6251 13.4767 77.9756 14.8603 77.9756 16.4283C77.9756 17.9963 77.6159 19.3799 76.8964 20.579C76.1954 21.7781 75.2362 22.7096 74.0187 23.3737C72.8196 24.0194 71.4729 24.3422 69.9787 24.3422ZM69.9787 20.9664C70.6797 20.9664 71.3346 20.8003 71.9433 20.4683C72.5705 20.1178 73.0686 19.6013 73.4376 18.9187C73.8065 18.2362 73.991 17.406 73.991 16.4283C73.991 14.971 73.6036 13.8549 72.8288 13.0801C72.0725 12.2869 71.1409 11.8903 70.034 11.8903C68.9272 11.8903 67.9956 12.2869 67.2393 13.0801C66.5014 13.8549 66.1324 14.971 66.1324 16.4283C66.1324 17.8857 66.4921 19.011 67.2116 19.8042C67.9495 20.579 68.8719 20.9664 69.9787 20.9664Z" fill="white"/>
<path d="M99.855 8.54199C101.737 8.54199 103.25 9.12308 104.393 10.2853C105.555 11.429 106.137 13.0339 106.137 15.1V24.0931H102.263V15.6258C102.263 14.4267 101.958 13.5135 101.349 12.8863C100.74 12.2407 99.9104 11.9178 98.8589 11.9178C97.8074 11.9178 96.968 12.2407 96.3408 12.8863C95.7321 13.5135 95.4277 14.4267 95.4277 15.6258V24.0931H91.5537V15.6258C91.5537 14.4267 91.2494 13.5135 90.6406 12.8863C90.0318 12.2407 89.2017 11.9178 88.1502 11.9178C87.0803 11.9178 86.2317 12.2407 85.6045 12.8863C84.9957 13.5135 84.6913 14.4267 84.6913 15.6258V24.0931H80.8174V8.76336H84.6913V10.6173C85.1894 9.97166 85.8259 9.46436 86.6006 9.09541C87.3939 8.72647 88.2609 8.54199 89.2017 8.54199C90.4008 8.54199 91.4707 8.80026 92.4116 9.31678C93.3524 9.81486 94.081 10.5343 94.5976 11.4751C95.0956 10.5897 95.8151 9.87943 96.7559 9.34445C97.7152 8.80948 98.7482 8.54199 99.855 8.54199Z" fill="white"/>
<path d="M113.687 10.9771C114.185 10.2761 114.867 9.69503 115.734 9.23385C116.62 8.75422 117.625 8.5144 118.75 8.5144C120.06 8.5144 121.241 8.83723 122.292 9.48289C123.362 10.1285 124.202 11.0509 124.81 12.25C125.438 13.4306 125.751 14.805 125.751 16.373C125.751 17.941 125.438 19.3338 124.81 20.5513C124.202 21.7504 123.362 22.682 122.292 23.3461C121.241 24.0102 120.06 24.3422 118.75 24.3422C117.625 24.3422 116.629 24.1116 115.762 23.6505C114.913 23.1893 114.222 22.6082 113.687 21.9072V31.3983H109.813V8.76344H113.687V10.9771ZM121.794 16.373C121.794 15.4506 121.601 14.6574 121.213 13.9933C120.844 13.3107 120.346 12.7942 119.719 12.4437C119.11 12.0932 118.446 11.9179 117.727 11.9179C117.026 11.9179 116.362 12.1024 115.734 12.4714C115.126 12.8219 114.627 13.3384 114.24 14.0209C113.871 14.7035 113.687 15.506 113.687 16.4283C113.687 17.3507 113.871 18.1531 114.24 18.8357C114.627 19.5183 115.126 20.044 115.734 20.413C116.362 20.7634 117.026 20.9387 117.727 20.9387C118.446 20.9387 119.11 20.7542 119.719 20.3853C120.346 20.0163 120.844 19.4906 121.213 18.808C121.601 18.1255 121.794 17.3138 121.794 16.373Z" fill="white"/>
<path d="M127.57 16.373C127.57 14.8234 127.875 13.4491 128.483 12.25C129.11 11.0509 129.95 10.1285 131.001 9.48289C132.071 8.83723 133.261 8.5144 134.571 8.5144C135.715 8.5144 136.711 8.74499 137.559 9.20618C138.426 9.66736 139.118 10.2485 139.635 10.9495V8.76344H143.536V24.0932H139.635V21.8518C139.137 22.5713 138.445 23.1708 137.559 23.6505C136.692 24.1116 135.687 24.3422 134.543 24.3422C133.252 24.3422 132.071 24.0102 131.001 23.3461C129.95 22.682 129.11 21.7504 128.483 20.5513C127.875 19.3338 127.57 17.941 127.57 16.373ZM139.635 16.4283C139.635 15.4875 139.45 14.685 139.081 14.0209C138.712 13.3384 138.214 12.8219 137.587 12.4714C136.96 12.1024 136.287 11.9179 135.567 11.9179C134.848 11.9179 134.184 12.0932 133.575 12.4437C132.966 12.7942 132.468 13.3107 132.081 13.9933C131.712 14.6574 131.527 15.4506 131.527 16.373C131.527 17.2953 131.712 18.107 132.081 18.808C132.468 19.4906 132.966 20.0163 133.575 20.3853C134.202 20.7542 134.866 20.9387 135.567 20.9387C136.287 20.9387 136.96 20.7634 137.587 20.413C138.214 20.044 138.712 19.5275 139.081 18.8634C139.45 18.1808 139.635 17.3691 139.635 16.4283Z" fill="white"/>
<path d="M155.815 8.54199C157.641 8.54199 159.117 9.12308 160.242 10.2853C161.368 11.429 161.93 13.0339 161.93 15.1V24.0931H158.056V15.6258C158.056 14.4082 157.752 13.4766 157.143 12.831C156.534 12.1669 155.704 11.8348 154.653 11.8348C153.583 11.8348 152.734 12.1669 152.107 12.831C151.498 13.4766 151.194 14.4082 151.194 15.6258V24.0931H147.32V8.76336H151.194V10.6727C151.71 10.0086 152.365 9.49203 153.158 9.12308C153.97 8.73569 154.856 8.54199 155.815 8.54199Z" fill="white"/>
<path d="M180.28 8.76343L170.789 31.343H166.666L169.986 23.7058L163.843 8.76343H168.187L172.144 19.4721L176.157 8.76343H180.28Z" fill="white"/>
<path d="M5.59846 32.4239H2.83691V13.0857H13.1958V24.8266C13.1958 29.0219 9.79621 32.4239 5.59846 32.4239Z" fill="#0328EE"/>
<path d="M27.008 13.0858C27.008 6.41224 21.5982 1 14.9222 1C14.3359 1 13.7595 1.04434 13.1953 1.12564V13.0858H27.008Z" fill="#0328EE"/>
<path d="M23.0944 25.826C25.7436 24.745 27.0149 21.7212 25.934 19.072C24.853 16.4228 21.8291 15.1515 19.1799 16.2324C16.5307 17.3134 15.2594 20.3373 16.3404 22.9865C17.4214 25.6357 20.4453 26.907 23.0944 25.826Z" fill="white"/>
</g>
<defs>
<clipPath id="clip0_428_17893">
<rect width="179" height="32" fill="white" transform="translate(2 1)"/>
</clipPath>
</defs>
</svg>
