<svg width="184" height="33" viewBox="0 0 184 33" fill="none" xmlns="http://www.w3.org/2000/svg">
<g clip-path="url(#clip0_428_17841)">
<g clip-path="url(#clip1_428_17841)">
<path d="M64.4797 23.7079C63.0122 23.7079 61.7187 23.3959 60.5987 22.7719C59.4789 22.1479 58.5908 21.2779 57.9342 20.1623C57.2971 19.0466 56.9785 17.7701 56.9785 16.333C56.9785 14.8958 57.2971 13.6193 57.9342 12.5037C58.5908 11.388 59.4789 10.5181 60.5987 9.89405C61.7187 9.27003 63.0122 8.95801 64.4797 8.95801C66.314 8.95801 67.8586 9.43076 69.1136 10.3763C70.3687 11.3029 71.17 12.5887 71.5175 14.2339H67.6077C67.4145 13.5531 67.0284 13.0236 66.4491 12.6455C65.8892 12.2484 65.2231 12.0498 64.4507 12.0498C63.4274 12.0498 62.5586 12.428 61.8442 13.1844C61.1298 13.9408 60.7726 14.9903 60.7726 16.333C60.7726 17.6756 61.1298 18.7251 61.8442 19.4815C62.5586 20.2379 63.4274 20.6161 64.4507 20.6161C65.2231 20.6161 65.8892 20.427 66.4491 20.0488C67.0284 19.6706 67.4145 19.1317 67.6077 18.432H71.5175C71.17 20.0204 70.3687 21.2968 69.1136 22.2613C67.8586 23.2257 66.314 23.7079 64.4797 23.7079Z" fill="white"/>
<path d="M81.1221 23.7079C79.7319 23.7079 78.4768 23.3959 77.3569 22.7719C76.2564 22.1479 75.3779 21.2874 74.7214 20.1906C74.0842 19.0749 73.7656 17.789 73.7656 16.333C73.7656 14.8769 74.0939 13.6004 74.7503 12.5037C75.4068 11.388 76.2853 10.5181 77.3859 9.89405C78.5058 9.27003 79.7608 8.95801 81.151 8.95801C82.5219 8.95801 83.7576 9.27003 84.8582 9.89405C85.978 10.5181 86.8565 11.388 87.4938 12.5037C88.1502 13.6004 88.4785 14.8769 88.4785 16.333C88.4785 17.789 88.1502 19.0749 87.4938 20.1906C86.8565 21.2874 85.978 22.1479 84.8582 22.7719C83.7383 23.3959 82.4929 23.7079 81.1221 23.7079ZM81.1221 20.5593C82.0875 20.5593 82.9274 20.2095 83.6418 19.5098C84.3562 18.7913 84.7133 17.7323 84.7133 16.333C84.7133 14.9336 84.3562 13.8841 83.6418 13.1844C82.9274 12.4658 82.0971 12.1065 81.151 12.1065C80.1663 12.1065 79.3167 12.4658 78.6024 13.1844C77.9073 13.8841 77.5597 14.9336 77.5597 16.333C77.5597 17.7323 77.9073 18.7913 78.6024 19.5098C79.3167 20.2095 80.1567 20.5593 81.1221 20.5593Z" fill="white"/>
<path d="M91.2139 23.3675V9.29838H94.4862L94.8048 11.1989C95.2689 10.5181 95.8768 9.97915 96.6302 9.58204C97.4019 9.16602 98.2907 8.95801 99.294 8.95801C101.515 8.95801 103.088 9.7995 104.015 11.4825C104.537 10.7072 105.231 10.0926 106.1 9.63877C106.989 9.18492 107.954 8.95801 108.997 8.95801C110.87 8.95801 112.308 9.5064 113.312 10.6032C114.316 11.7 114.818 13.3073 114.818 15.4252V23.3675H111.111V15.7657C111.111 14.5554 110.87 13.6288 110.387 12.9859C109.924 12.3429 109.2 12.0214 108.215 12.0214C107.211 12.0214 106.4 12.3807 105.782 13.0993C105.183 13.8179 104.885 14.8202 104.885 16.106V23.3675H101.177V15.7657C101.177 14.5554 100.935 13.6288 100.453 12.9859C99.9705 12.3429 99.2272 12.0214 98.223 12.0214C97.238 12.0214 96.437 12.3807 95.8191 13.0993C95.2204 13.8179 94.9211 14.8202 94.9211 16.106V23.3675H91.2139Z" fill="white"/>
<path d="M117.758 29.6079V9.29838H121.06L121.465 11.3123C121.928 10.6883 122.537 10.1399 123.29 9.66714C124.062 9.19438 125.056 8.95801 126.273 8.95801C127.624 8.95801 128.832 9.27948 129.894 9.92242C130.955 10.5654 131.795 11.4447 132.413 12.5604C133.031 13.6761 133.34 14.9431 133.34 16.3613C133.34 17.7796 133.031 19.0466 132.413 20.1623C131.795 21.259 130.955 22.1289 129.894 22.7719C128.832 23.3959 127.624 23.7079 126.273 23.7079C125.192 23.7079 124.245 23.5094 123.434 23.1123C122.624 22.7151 121.967 22.1573 121.465 21.4387V29.6079H117.758ZM125.491 20.531C126.669 20.531 127.644 20.1433 128.416 19.368C129.189 18.5928 129.575 17.5905 129.575 16.3613C129.575 15.1322 129.189 14.1205 128.416 13.3262C127.644 12.532 126.669 12.1349 125.491 12.1349C124.294 12.1349 123.309 12.532 122.537 13.3262C121.784 14.1016 121.408 15.1038 121.408 16.333C121.408 17.5621 121.784 18.5738 122.537 19.368C123.309 20.1433 124.294 20.531 125.491 20.531Z" fill="white"/>
<path d="M141.025 23.7079C139.789 23.7079 138.775 23.5188 137.984 23.1406C137.192 22.7435 136.603 22.2234 136.217 21.5805C135.831 20.9376 135.638 20.2284 135.638 19.4531C135.638 18.1483 136.159 17.0893 137.201 16.2762C138.244 15.4631 139.808 15.0565 141.894 15.0565H145.543V14.7162C145.543 13.7517 145.262 13.0426 144.703 12.5887C144.143 12.1349 143.448 11.908 142.618 11.908C141.864 11.908 141.208 12.0876 140.648 12.4469C140.088 12.7873 139.741 13.2979 139.605 13.9787H135.986C136.082 12.9575 136.43 12.0687 137.028 11.3123C137.646 10.5559 138.437 9.97915 139.403 9.58204C140.369 9.16602 141.45 8.95801 142.646 8.95801C144.693 8.95801 146.305 9.45913 147.483 10.4614C148.661 11.4636 149.25 12.8819 149.25 14.7162V23.3675H146.093L145.746 21.0983C145.321 21.8547 144.722 22.4788 143.95 22.9704C143.197 23.4621 142.221 23.7079 141.025 23.7079ZM141.864 20.8713C142.926 20.8713 143.747 20.531 144.326 19.8503C144.925 19.1695 145.302 18.328 145.456 17.3257H142.299C141.314 17.3257 140.609 17.5054 140.185 17.8647C139.76 18.2051 139.547 18.6305 139.547 19.1411C139.547 19.6895 139.76 20.115 140.185 20.4175C140.609 20.7201 141.17 20.8713 141.864 20.8713Z" fill="white"/>
<path d="M152.209 23.3675V9.29838H155.482L155.771 11.6811C156.215 10.849 156.852 10.1872 157.682 9.6955C158.532 9.20383 159.527 8.95801 160.666 8.95801C162.442 8.95801 163.823 9.5064 164.807 10.6032C165.792 11.7 166.285 13.3073 166.285 15.4252V23.3675H162.577V15.7657C162.577 14.5554 162.326 13.6288 161.824 12.9859C161.322 12.3429 160.54 12.0214 159.478 12.0214C158.436 12.0214 157.576 12.3807 156.901 13.0993C156.244 13.8179 155.916 14.8202 155.916 16.106V23.3675H152.209Z" fill="white"/>
<path d="M170.565 29.6078L173.896 22.4314H173.027L167.438 9.29834H171.464L175.489 19.1978L179.689 9.29834H183.628L174.505 29.6078H170.565Z" fill="white"/>
<path d="M14.7261 27.1624C13.7575 28.111 12.1867 28.1097 11.2198 27.1594L1.96377 18.0631C0.999186 17.1151 1.00053 15.5812 1.96678 14.6349L11.2228 5.56974C12.189 4.62341 13.7552 4.62209 14.7231 5.5668L24.0109 14.632C24.9811 15.579 24.9825 17.1174 24.0139 18.066L14.7261 27.1624Z" fill="#0328EE"/>
<path d="M27.5207 27.1584C26.5538 28.1087 24.9829 28.11 24.0143 27.1614L14.7265 18.065C13.7579 17.1164 13.7593 15.578 14.7296 14.631L24.0174 5.56582C24.9852 4.62112 26.5514 4.62243 27.5177 5.56876L36.7737 14.6339C37.7399 15.5802 37.7413 17.1142 36.7767 18.0621L27.5207 27.1584Z" fill="white"/>
<path d="M37.0047 27.1603C36.037 28.1096 34.4664 28.1096 33.4986 27.1603L24.2251 18.0637C23.2584 17.1154 23.2597 15.579 24.2282 14.6323L33.5017 5.56692C34.4687 4.62157 36.0347 4.62157 37.0018 5.56692L46.2752 14.6323C47.2436 15.579 47.245 17.1154 46.2782 18.0637L37.0047 27.1603Z" fill="#0328EE"/>
</g>
</g>
<defs>
<clipPath id="clip0_428_17841">
<rect width="184" height="33" fill="white"/>
</clipPath>
<clipPath id="clip1_428_17841">
<rect width="184" height="26" fill="white" transform="translate(0.217773 3.78125)"/>
</clipPath>
</defs>
</svg>
