<svg width="185" height="33" viewBox="0 0 185 33" fill="none" xmlns="http://www.w3.org/2000/svg">
<g clip-path="url(#clip0_428_17854)">
<path d="M65.3034 17.896C64.0404 19.9449 62.2441 21.1237 59.9146 21.1237C56.5467 21.1237 54.0768 18.4012 54.0768 14.8929C54.0768 11.3846 56.4344 8.69021 59.9708 8.69021C62.2161 8.69021 64.2368 9.95319 65.2472 11.8617L68.5029 9.2796C66.847 6.33263 63.8439 4.56445 60.0269 4.56445C53.9084 4.56445 49.6143 9.1112 49.6143 14.8929C49.6143 20.6746 53.9926 25.2494 59.9708 25.2494C63.7317 25.2494 66.8751 23.2567 68.5871 20.422L65.3034 17.896Z" fill="white"/>
<path d="M77.5025 10.1777C73.0119 10.1777 69.7842 13.4335 69.7842 17.6996C69.7842 21.9376 73.0119 25.2494 77.5025 25.2494C81.9931 25.2494 85.2207 21.9376 85.2207 17.6996C85.2207 13.4335 81.9931 10.1777 77.5025 10.1777ZM77.5025 13.9667C79.4391 13.9667 80.8985 15.4543 80.8985 17.6996C80.8985 19.9449 79.4391 21.4605 77.5025 21.4605C75.5659 21.4605 74.1065 19.9449 74.1065 17.6996C74.1065 15.4543 75.5659 13.9667 77.5025 13.9667Z" fill="white"/>
<path d="M88.0088 10.5145V24.9126H92.2749V17.4189C92.2749 15.5385 93.2572 13.9387 95.0534 13.9387C96.6252 13.9387 97.6355 14.921 97.6355 16.8014V24.9126H101.902V17.4189C101.902 15.5385 102.884 13.9387 104.68 13.9387C106.252 13.9387 107.234 14.921 107.234 16.8014V24.9126H111.5V16.1559C111.5 12.423 109.395 10.1777 105.943 10.1777C103.501 10.1777 102.126 11.2443 101.088 12.7037C100.105 11.1039 98.5337 10.1777 96.3164 10.1777C94.436 10.1777 93.0327 10.9075 92.1065 12.3669V10.5145H88.0088Z" fill="white"/>
<path d="M122.693 13.9387C124.517 13.9387 126.033 15.4262 126.033 17.7557C126.033 20.001 124.517 21.4885 122.693 21.4885C120.785 21.4885 119.297 20.0291 119.297 17.7557C119.297 15.3981 120.785 13.9387 122.693 13.9387ZM119.101 10.5145H115.143V30.5259H119.409V23.3409C120.307 24.6881 122.02 25.2494 123.563 25.2494C127.492 25.2494 130.327 21.9937 130.327 17.6996C130.327 13.2651 127.268 10.1777 123.591 10.1777C122.188 10.1777 120.223 10.7671 119.101 12.5072V10.5145Z" fill="white"/>
<path d="M140.589 15.9594L136.66 16.7172C133.628 17.3628 131.973 18.8222 131.973 20.9553C131.973 23.4532 133.937 25.2494 136.744 25.2494C138.652 25.2494 140.056 24.4074 140.729 23.1444V24.9126H144.687V15.8472C144.687 12.3388 142.301 10.1777 138.287 10.1777C135.593 10.1777 133.432 11.3004 132.113 12.9002L134.33 15.5946C135.2 14.6123 136.435 13.8545 138.035 13.8545C139.494 13.8545 140.589 14.4158 140.589 15.8472V15.9594ZM137.698 22.0779C136.688 22.0779 136.042 21.5166 136.042 20.7027C136.042 19.9168 136.604 19.4116 137.754 19.2151L140.617 18.6538V19.0748C140.617 20.7869 139.466 22.0779 137.698 22.0779Z" fill="white"/>
<path d="M148.28 10.5145V24.9126H152.546V17.4189C152.546 15.5385 153.529 13.9387 155.381 13.9387C156.953 13.9387 157.963 14.921 157.963 16.8014V24.9126H162.229V16.1559C162.229 12.423 160.096 10.1777 156.644 10.1777C154.707 10.1777 153.304 10.9075 152.378 12.3669V10.5145H148.28Z" fill="white"/>
<path d="M169.195 24.3792L169.027 24.8563C168.409 26.9051 167.371 27.27 166.248 27.27C165.771 27.27 165.041 27.2139 164.283 26.7929V30.3292C164.929 30.638 165.855 30.8625 166.865 30.8625C169.588 30.8625 171.328 29.5714 172.759 26.0912L179.046 10.5144H174.696L171.328 19.9447L167.988 10.5144H163.526L169.195 24.3792Z" fill="white"/>
<path d="M24.2098 2.61499H19.7308C19.263 2.61499 18.8838 2.9942 18.8838 3.46199V27.3092C18.8838 27.777 19.263 28.1562 19.7308 28.1562H24.2098C24.6776 28.1562 25.0568 27.777 25.0568 27.3092V3.46199C25.0568 2.9942 24.6776 2.61499 24.2098 2.61499Z" fill="white"/>
<path d="M33.339 28.1556C36.237 28.1556 38.5863 25.8063 38.5863 22.9084C38.5863 20.0104 36.237 17.6611 33.339 17.6611C30.4411 17.6611 28.0918 20.0104 28.0918 22.9084C28.0918 25.8063 30.4411 28.1556 33.339 28.1556Z" fill="#0328EE"/>
<path d="M33.339 13.1095C36.237 13.1095 38.5863 10.7602 38.5863 7.86223C38.5863 4.96426 36.237 2.61499 33.339 2.61499C30.4411 2.61499 28.0918 4.96426 28.0918 7.86223C28.0918 10.7602 30.4411 13.1095 33.339 13.1095Z" fill="#0328EE"/>
<path d="M10.6017 28.1556C13.4997 28.1556 15.849 25.8063 15.849 22.9084C15.849 20.0104 13.4997 17.6611 10.6017 17.6611C7.70376 17.6611 5.35449 20.0104 5.35449 22.9084C5.35449 25.8063 7.70376 28.1556 10.6017 28.1556Z" fill="#0328EE"/>
</g>
<defs>
<clipPath id="clip0_428_17854">
<rect width="175" height="29" fill="white" transform="translate(5 2.53125)"/>
</clipPath>
</defs>
</svg>
