<svg width="185" height="33" viewBox="0 0 185 33" fill="none" xmlns="http://www.w3.org/2000/svg">
<g clip-path="url(#clip0_428_17881)">
<path d="M43.0488 14.0431C43.0488 12.143 43.4731 10.4459 44.3216 8.95164C45.1887 7.43896 46.3601 6.26755 47.8358 5.43742C49.3301 4.58884 50.9996 4.16455 52.8443 4.16455C55.0026 4.16455 56.8935 4.71797 58.5169 5.82481C60.1402 6.93166 61.2747 8.46278 61.9204 10.4182H57.4654C57.0226 9.49584 56.3954 8.80406 55.5837 8.34288C54.7905 7.88169 53.8681 7.6511 52.8166 7.6511C51.6913 7.6511 50.686 7.91859 49.8005 8.45356C48.9335 8.97009 48.2509 9.70798 47.7528 10.6672C47.2732 11.6265 47.0334 12.7518 47.0334 14.0431C47.0334 15.3159 47.2732 16.4412 47.7528 17.4189C48.2509 18.3782 48.9335 19.1253 49.8005 19.6603C50.686 20.1768 51.6913 20.4351 52.8166 20.4351C53.8681 20.4351 54.7905 20.2045 55.5837 19.7433C56.3954 19.2637 57.0226 18.5627 57.4654 17.6403H61.9204C61.2747 19.6142 60.1402 21.1545 58.5169 22.2614C56.9119 23.3498 55.0211 23.894 52.8443 23.894C50.9996 23.894 49.3301 23.4789 47.8358 22.6488C46.3601 21.8002 45.1887 20.6288 44.3216 19.1345C43.4731 17.6403 43.0488 15.9432 43.0488 14.0431Z" fill="white"/>
<path d="M72.0363 23.9773C70.5605 23.9773 69.2323 23.6544 68.0517 23.0088C66.871 22.3447 65.9395 21.4131 65.2569 20.214C64.5928 19.0149 64.2607 17.6314 64.2607 16.0634C64.2607 14.4953 64.602 13.1118 65.2846 11.9127C65.9856 10.7136 66.9356 9.79122 68.1347 9.14557C69.3338 8.48146 70.6712 8.14941 72.147 8.14941C73.6228 8.14941 74.9602 8.48146 76.1593 9.14557C77.3584 9.79122 78.2992 10.7136 78.9817 11.9127C79.6827 13.1118 80.0332 14.4953 80.0332 16.0634C80.0332 17.6314 79.6735 19.0149 78.9541 20.214C78.2531 21.4131 77.2938 22.3447 76.0763 23.0088C74.8772 23.6544 73.5305 23.9773 72.0363 23.9773ZM72.0363 20.6014C72.7373 20.6014 73.3922 20.4354 74.0009 20.1033C74.6282 19.7528 75.1262 19.2363 75.4952 18.5538C75.8641 17.8712 76.0486 17.0411 76.0486 16.0634C76.0486 14.606 75.6612 13.49 74.8864 12.7152C74.1301 11.9219 73.1985 11.5253 72.0916 11.5253C70.9848 11.5253 70.0532 11.9219 69.2969 12.7152C68.559 13.49 68.19 14.606 68.19 16.0634C68.19 17.5207 68.5498 18.646 69.2692 19.4392C70.0071 20.214 70.9295 20.6014 72.0363 20.6014Z" fill="white"/>
<path d="M101.913 8.177C103.794 8.177 105.307 8.75809 106.45 9.92027C107.612 11.064 108.194 12.6689 108.194 14.7351V23.7281H104.32V15.2608C104.32 14.0617 104.015 13.1486 103.406 12.5214C102.798 11.8757 101.968 11.5529 100.916 11.5529C99.865 11.5529 99.0256 11.8757 98.3984 12.5214C97.7897 13.1486 97.4853 14.0617 97.4853 15.2608V23.7281H93.6114V15.2608C93.6114 14.0617 93.307 13.1486 92.6982 12.5214C92.0895 11.8757 91.2593 11.5529 90.2078 11.5529C89.1379 11.5529 88.2893 11.8757 87.6621 12.5214C87.0533 13.1486 86.7489 14.0617 86.7489 15.2608V23.7281H82.875V8.39837H86.7489V10.2523C87.247 9.60667 87.8835 9.09937 88.6582 8.73042C89.4515 8.36147 90.3185 8.177 91.2593 8.177C92.4584 8.177 93.5283 8.43526 94.4692 8.95179C95.41 9.44987 96.1386 10.1693 96.6552 11.1101C97.1532 10.2247 97.8727 9.51443 98.8135 8.97946C99.7728 8.44449 100.806 8.177 101.913 8.177Z" fill="white"/>
<path d="M115.744 10.6121C116.242 9.91113 116.924 9.33004 117.791 8.86886C118.677 8.38923 119.682 8.14941 120.807 8.14941C122.117 8.14941 123.298 8.47224 124.349 9.1179C125.419 9.76355 126.259 10.6859 126.867 11.885C127.495 13.0657 127.808 14.44 127.808 16.008C127.808 17.576 127.495 18.9688 126.867 20.1863C126.259 21.3854 125.419 22.317 124.349 22.9811C123.298 23.6452 122.117 23.9773 120.807 23.9773C119.682 23.9773 118.686 23.7467 117.819 23.2855C116.97 22.8243 116.279 22.2432 115.744 21.5422V31.0334H111.87V8.39845H115.744V10.6121ZM123.851 16.008C123.851 15.0857 123.658 14.2924 123.27 13.6283C122.901 12.9458 122.403 12.4292 121.776 12.0787C121.167 11.7282 120.503 11.5529 119.784 11.5529C119.083 11.5529 118.419 11.7374 117.791 12.1064C117.183 12.4569 116.684 12.9734 116.297 13.656C115.928 14.3385 115.744 15.141 115.744 16.0634C115.744 16.9857 115.928 17.7882 116.297 18.4707C116.684 19.1533 117.183 19.679 117.791 20.048C118.419 20.3985 119.083 20.5737 119.784 20.5737C120.503 20.5737 121.167 20.3893 121.776 20.0203C122.403 19.6514 122.901 19.1256 123.27 18.4431C123.658 17.7605 123.851 16.9488 123.851 16.008Z" fill="white"/>
<path d="M129.627 16.008C129.627 14.4584 129.932 13.0841 130.54 11.885C131.167 10.6859 132.007 9.76355 133.058 9.1179C134.128 8.47224 135.318 8.14941 136.628 8.14941C137.772 8.14941 138.768 8.38 139.616 8.84118C140.483 9.30237 141.175 9.88346 141.692 10.5845V8.39845H145.593V23.7282H141.692V21.4869C141.194 22.2063 140.502 22.8059 139.616 23.2855C138.749 23.7467 137.744 23.9773 136.6 23.9773C135.309 23.9773 134.128 23.6452 133.058 22.9811C132.007 22.317 131.167 21.3854 130.54 20.1863C129.932 18.9688 129.627 17.576 129.627 16.008ZM141.692 16.0634C141.692 15.1225 141.507 14.3201 141.138 13.656C140.769 12.9734 140.271 12.4569 139.644 12.1064C139.017 11.7374 138.344 11.5529 137.624 11.5529C136.905 11.5529 136.241 11.7282 135.632 12.0787C135.023 12.4292 134.525 12.9458 134.138 13.6283C133.769 14.2924 133.584 15.0857 133.584 16.008C133.584 16.9304 133.769 17.7421 134.138 18.4431C134.525 19.1256 135.023 19.6514 135.632 20.0203C136.259 20.3893 136.923 20.5737 137.624 20.5737C138.344 20.5737 139.017 20.3985 139.644 20.048C140.271 19.679 140.769 19.1625 141.138 18.4984C141.507 17.8159 141.692 17.0042 141.692 16.0634Z" fill="white"/>
<path d="M157.872 8.177C159.698 8.177 161.174 8.75809 162.299 9.92027C163.425 11.064 163.987 12.6689 163.987 14.7351V23.7281H160.113V15.2608C160.113 14.0433 159.809 13.1117 159.2 12.466C158.591 11.8019 157.761 11.4699 156.71 11.4699C155.64 11.4699 154.791 11.8019 154.164 12.466C153.555 13.1117 153.251 14.0433 153.251 15.2608V23.7281H149.377V8.39837H153.251V10.3077C153.767 9.64356 154.422 9.12704 155.215 8.75809C156.027 8.3707 156.913 8.177 157.872 8.177Z" fill="white"/>
<path d="M182.337 8.39844L172.846 30.9779H168.723L172.043 23.3407L165.9 8.39844H170.245L174.201 19.1071L178.214 8.39844H182.337Z" fill="white"/>
<path d="M14.0032 30.8288C8.08841 30.8288 3.3125 26.0162 3.3125 20.1381C3.3125 14.2601 8.08841 9.44751 14.0032 9.44751C19.8812 9.44751 24.6939 14.2234 24.6939 20.1381C24.6571 26.0162 19.8812 30.8288 14.0032 30.8288Z" fill="#0328EE"/>
<path d="M29.805 2.61499H15.7246C14.7737 2.61499 14.0029 3.38584 14.0029 4.33672V18.4172C14.0029 19.3681 14.7737 20.1389 15.7246 20.1389H29.805C30.7559 20.1389 31.5268 19.3681 31.5268 18.4172V4.33672C31.5268 3.38584 30.7559 2.61499 29.805 2.61499Z" fill="white"/>
</g>
<defs>
<clipPath id="clip0_428_17881">
<rect width="180" height="29" fill="white" transform="translate(2.5 2.53125)"/>
</clipPath>
</defs>
</svg>
