<svg width="184" height="33" viewBox="0 0 184 33" fill="none" xmlns="http://www.w3.org/2000/svg">
<g clip-path="url(#clip0_428_17868)">
<path d="M25.6016 14.7748C21.8412 14.7748 18.7887 11.734 18.7887 7.99678C18.7887 7.50931 18.8468 7.04506 18.9396 6.58081H9.88672C6.38162 6.58081 3.53809 9.41274 3.53809 12.8946V24.5589C3.53809 28.0524 6.38162 30.8727 9.88672 30.8727H21.6091C25.1258 30.8727 27.9577 28.0408 27.9577 24.5589V14.3454C27.2381 14.6123 26.4373 14.7748 25.6016 14.7748Z" fill="#0328EE"/>
<path d="M27.9695 24.5589V14.3454C27.2383 14.6123 26.4374 14.7748 25.6134 14.7748C21.8529 14.7748 18.8005 11.734 18.8005 7.99678C18.8005 7.50931 18.8585 7.04506 18.9514 6.58081H9.89843C6.41655 6.58081 3.59623 9.36632 3.5498 12.825C11.9063 16.272 20.495 20.4619 27.923 25.3597C27.9462 25.0928 27.9695 24.8258 27.9695 24.5589Z" fill="#0328EE"/>
<path d="M26.1231 12.4339C28.8506 12.4339 31.0558 10.2403 31.0558 7.52444C31.0558 4.82018 28.8506 2.61499 26.1231 2.61499C23.3956 2.61499 21.1904 4.80857 21.1904 7.52444C21.1904 10.2287 23.3956 12.4339 26.1231 12.4339Z" fill="white"/>
<path d="M56.0086 18.6791C55.8145 19.5041 55.4869 20.3049 55.0258 21.0815C54.5648 21.8338 53.9945 22.5132 53.315 23.1199C52.6355 23.7023 51.859 24.1755 50.9854 24.5395C50.1118 24.8793 49.1775 25.0491 48.1826 25.0491C47.042 25.0491 45.9621 24.8307 44.9429 24.3939C43.948 23.9328 43.0622 23.314 42.2857 22.5375C41.5334 21.761 40.9268 20.8631 40.4657 19.8439C40.0289 18.8004 39.8105 17.6841 39.8105 16.495C39.8105 15.306 40.0289 14.2018 40.4657 13.1826C40.9268 12.1391 41.5334 11.2291 42.2857 10.4525C43.0622 9.676 43.948 9.06933 44.9429 8.63252C45.9621 8.17145 47.042 7.94092 48.1826 7.94092C49.1775 7.94092 50.1118 8.12292 50.9854 8.48692C51.859 8.82666 52.6355 9.29986 53.315 9.90654C53.9945 10.4889 54.5648 11.1684 55.0258 11.945C55.4869 12.6973 55.8145 13.4859 56.0086 14.311H51.8226C51.6285 13.8742 51.3615 13.4859 51.0218 13.1462C50.7306 12.855 50.3545 12.5881 49.8934 12.3454C49.4323 12.0784 48.862 11.945 48.1826 11.945C46.9935 11.945 45.9985 12.3575 45.1977 13.1826C44.3969 14.0077 43.9965 15.1118 43.9965 16.495C43.9965 17.8782 44.3969 18.9824 45.1977 19.8075C45.9985 20.6325 46.9935 21.0451 48.1826 21.0451C48.862 21.0451 49.4323 20.9237 49.8934 20.6811C50.3545 20.4384 50.7306 20.1715 51.0218 19.8803C51.3615 19.5405 51.6285 19.1401 51.8226 18.6791H56.0086Z" fill="white"/>
<path d="M62.9253 16.495C62.9253 17.8782 63.3257 18.9824 64.1265 19.8075C64.9273 20.6325 65.9223 21.0451 67.1114 21.0451C68.3004 21.0451 69.2954 20.6325 70.0962 19.8075C70.897 18.9824 71.2974 17.8782 71.2974 16.495C71.2974 15.1118 70.897 14.0077 70.0962 13.1826C69.2954 12.3575 68.3004 11.945 67.1114 11.945C65.9223 11.945 64.9273 12.3575 64.1265 13.1826C63.3257 14.0077 62.9253 15.1118 62.9253 16.495ZM75.4834 16.495C75.4834 17.6841 75.2529 18.8004 74.7918 19.8439C74.355 20.8631 73.7484 21.761 72.9718 22.5375C72.2195 23.314 71.3338 23.9328 70.3146 24.3939C69.3196 24.8307 68.2519 25.0491 67.1114 25.0491C65.9708 25.0491 64.8909 24.8307 63.8717 24.3939C62.8768 23.9328 61.991 23.314 61.2145 22.5375C60.4622 21.761 59.8555 20.8631 59.3945 19.8439C58.9577 18.8004 58.7393 17.6841 58.7393 16.495C58.7393 15.306 58.9577 14.2018 59.3945 13.1826C59.8555 12.1391 60.4622 11.2291 61.2145 10.4525C61.991 9.676 62.8768 9.06933 63.8717 8.63252C64.8909 8.17145 65.9708 7.94092 67.1114 7.94092C68.2519 7.94092 69.3196 8.17145 70.3146 8.63252C71.3338 9.06933 72.2195 9.676 72.9718 10.4525C73.7484 11.2291 74.355 12.1391 74.7918 13.1826C75.2529 14.2018 75.4834 15.306 75.4834 16.495Z" fill="white"/>
<path d="M87.1142 7.94092C87.9635 7.94092 88.6915 8.06225 89.2982 8.30492C89.9049 8.52332 90.4024 8.76599 90.7906 9.03293C91.2274 9.3484 91.5793 9.7124 91.8462 10.1249C92.2345 9.7124 92.6834 9.3484 93.1931 9.03293C93.6299 8.76599 94.1516 8.52332 94.7583 8.30492C95.3649 8.06225 96.0323 7.94092 96.7603 7.94092C98.5803 7.94092 100.036 8.52332 101.128 9.68813C102.22 10.8529 102.766 12.5759 102.766 14.857V24.8671H98.5803V15.221C98.5803 14.2018 98.3012 13.401 97.7431 12.8186C97.2092 12.2362 96.5783 11.945 95.8503 11.945C95.1223 11.945 94.4792 12.2362 93.9211 12.8186C93.3872 13.401 93.1203 14.2018 93.1203 15.221V24.8671H88.9342V15.221C88.9342 14.2018 88.6551 13.401 88.097 12.8186C87.5631 12.2362 86.9322 11.945 86.2042 11.945C85.4762 11.945 84.8331 12.2362 84.275 12.8186C83.7411 13.401 83.4742 14.2018 83.4742 15.221V24.8671H79.2881V8.12292H82.3821L83.1102 9.76093C83.4499 9.4212 83.826 9.11786 84.2386 8.85092C84.5783 8.63252 84.9908 8.42625 85.4762 8.23212C85.9615 8.03798 86.5075 7.94092 87.1142 7.94092Z" fill="white"/>
<path d="M115.87 7.94092C116.914 7.94092 117.909 8.15932 118.855 8.59612C119.801 9.00866 120.626 9.6032 121.33 10.3797C122.058 11.132 122.629 12.0299 123.041 13.0734C123.478 14.1169 123.696 15.2574 123.696 16.495C123.696 17.7326 123.478 18.8732 123.041 19.9167C122.629 20.9601 122.058 21.8702 121.33 22.6467C120.626 23.399 119.801 23.9935 118.855 24.4303C117.909 24.8429 116.914 25.0491 115.87 25.0491C115.166 25.0491 114.548 24.9642 114.014 24.7943C113.504 24.6245 113.055 24.4424 112.667 24.2483C112.23 24.0056 111.842 23.7266 111.502 23.4111V30.6912H107.316V8.12292H110.41L111.138 9.76093C111.502 9.4212 111.927 9.11786 112.412 8.85092C112.825 8.63252 113.322 8.42625 113.905 8.23212C114.487 8.03798 115.142 7.94092 115.87 7.94092ZM111.138 16.495C111.138 17.8782 111.539 18.9824 112.339 19.8075C113.14 20.6325 114.135 21.0451 115.324 21.0451C116.513 21.0451 117.508 20.6325 118.309 19.8075C119.11 18.9824 119.51 17.8782 119.51 16.495C119.51 15.1118 119.11 14.0077 118.309 13.1826C117.508 12.3575 116.513 11.945 115.324 11.945C114.135 11.945 113.14 12.3575 112.339 13.1826C111.539 14.0077 111.138 15.1118 111.138 16.495Z" fill="white"/>
<path d="M134.44 7.94092C135.386 7.94092 136.26 8.11078 137.061 8.45052C137.862 8.76599 138.553 9.21493 139.136 9.79733C139.718 10.3797 140.167 11.0713 140.483 11.8722C140.822 12.673 140.992 13.5466 140.992 14.493V24.8671H137.898L137.17 23.2291C136.782 23.5688 136.357 23.8722 135.896 24.1391C135.484 24.3818 134.986 24.6002 134.404 24.7943C133.821 24.9642 133.166 25.0491 132.438 25.0491C130.618 25.0491 129.223 24.6123 128.252 23.7387C127.281 22.8408 126.796 21.7003 126.796 20.3171C126.796 19.492 126.954 18.7397 127.269 18.0602C127.609 17.3565 128.167 16.762 128.944 16.2766C129.72 15.767 130.739 15.3788 132.001 15.1118C133.287 14.8206 134.889 14.675 136.806 14.675C136.806 13.7529 136.551 13.037 136.042 12.5274C135.556 12.0178 134.901 11.763 134.076 11.763C133.518 11.763 133.069 11.86 132.729 12.0542C132.414 12.2483 132.159 12.4546 131.965 12.673C131.746 12.9399 131.601 13.2433 131.528 13.583H127.342C127.439 12.8065 127.657 12.0784 127.997 11.3989C128.361 10.7195 128.847 10.1249 129.453 9.61533C130.06 9.10573 130.776 8.70532 131.601 8.41412C132.45 8.09865 133.397 7.94092 134.44 7.94092ZM133.166 21.7731C134.258 21.7731 135.132 21.4576 135.787 20.8267C136.466 20.1715 136.806 19.3343 136.806 18.3151V17.587C135.568 17.587 134.574 17.6477 133.821 17.769C133.069 17.8661 132.474 18.0238 132.038 18.2423C131.625 18.4364 131.346 18.6791 131.2 18.9703C131.055 19.2615 130.982 19.5891 130.982 19.9531C130.982 20.4141 131.188 20.8388 131.601 21.2271C132.013 21.5911 132.535 21.7731 133.166 21.7731Z" fill="white"/>
<path d="M154.082 7.94092C155.077 7.94092 155.987 8.11078 156.812 8.45052C157.637 8.76599 158.341 9.2392 158.923 9.87014C159.53 10.4768 159.991 11.2169 160.306 12.0906C160.646 12.9642 160.816 13.947 160.816 15.039V24.8671H156.63V15.585C156.63 14.493 156.302 13.6194 155.647 12.9642C155.016 12.2847 154.191 11.945 153.172 11.945C152.153 11.945 151.316 12.2847 150.66 12.9642C150.029 13.6194 149.714 14.493 149.714 15.585V24.8671H145.528V8.12292H148.622L149.35 9.76093C149.763 9.4212 150.211 9.11786 150.697 8.85092C151.109 8.63252 151.595 8.42625 152.153 8.23212C152.735 8.03798 153.378 7.94092 154.082 7.94092Z" fill="white"/>
<path d="M163.561 8.1228H167.929L172.115 19.043L175.937 8.1228H180.306C179.116 11.1804 178.037 13.9469 177.066 16.4221C176.653 17.4899 176.241 18.5334 175.828 19.5526C175.44 20.5718 175.088 21.5061 174.773 22.3554C174.457 23.1805 174.19 23.8721 173.972 24.4302C173.753 24.9884 173.62 25.316 173.571 25.413C173.159 26.408 172.746 27.2452 172.334 27.9246C171.946 28.6284 171.521 29.1987 171.06 29.6355C170.599 30.0723 170.101 30.3877 169.567 30.5819C169.034 30.776 168.427 30.8731 167.747 30.8731C167.553 30.8731 167.359 30.8609 167.165 30.8367C166.995 30.8367 166.85 30.8245 166.728 30.8003C166.558 30.776 166.413 30.7396 166.291 30.6911V27.233C167.214 27.233 167.917 27.0268 168.403 26.6142C168.912 26.2017 169.3 25.68 169.567 25.049L169.931 24.139L163.561 8.1228Z" fill="white"/>
</g>
<defs>
<clipPath id="clip0_428_17868">
<rect width="177" height="29" fill="white" transform="translate(3.49219 2.53125)"/>
</clipPath>
</defs>
</svg>
