<svg width="46" height="46" viewBox="0 0 46 46" fill="none" xmlns="http://www.w3.org/2000/svg">
<rect width="46" height="46" rx="13" fill="#0328EE"/>
<g clip-path="url(#clip0_428_17972)">
<path d="M22.5917 41.1134C32.3073 41.1134 40.1834 33.2373 40.1834 23.5217C40.1834 13.8061 32.3073 5.92999 22.5917 5.92999C12.8761 5.92999 5 13.8061 5 23.5217C5 33.2373 12.8761 41.1134 22.5917 41.1134Z" fill="white" fill-opacity="0.4"/>
<path d="M26.0349 12.6579C26.0349 12.2125 25.4963 11.9894 25.1814 12.3044L13.7111 23.7746C13.5907 23.8952 13.5087 24.0487 13.4755 24.2159C13.4423 24.383 13.4594 24.5563 13.5246 24.7137C13.5898 24.8712 13.7002 25.0058 13.8418 25.1005C13.9835 25.1953 14.15 25.2459 14.3204 25.2461H18.6488C18.9249 25.2461 19.1488 25.47 19.1488 25.7461V34.3855C19.1488 34.8309 19.6873 35.054 20.0023 34.739L31.4726 23.2688C31.593 23.1482 31.675 22.9946 31.7082 22.8275C31.7414 22.6603 31.7243 22.4871 31.6591 22.3296C31.5939 22.1722 31.4835 22.0376 31.3419 21.9428C31.2002 21.8481 31.0337 21.7974 30.8633 21.7973H26.5349C26.2588 21.7973 26.0349 21.5734 26.0349 21.2973V12.6579Z" fill="white"/>
</g>
<defs>
<clipPath id="clip0_428_17972">
<rect width="36" height="37" fill="white" transform="translate(5 5)"/>
</clipPath>
</defs>
</svg>
