<svg width="46" height="46" viewBox="0 0 46 46" fill="none" xmlns="http://www.w3.org/2000/svg">
<rect width="46" height="46" rx="13" fill="#0328EE"/>
<g clip-path="url(#clip0_428_17979)">
<path d="M17.709 19.568V15.3488C17.709 13.7823 18.3288 12.2799 19.4321 11.1721C20.5355 10.0644 22.0319 9.44208 23.5923 9.44208C25.1526 9.44208 26.649 10.0644 27.7523 11.1721C28.8557 12.2799 29.4755 13.7823 29.4755 15.3488V19.568" stroke="white" stroke-opacity="0.4" stroke-width="4" stroke-linecap="round" stroke-linejoin="round"/>
<path d="M31.758 18.2656H15.4258C13.2166 18.2656 11.4258 20.0565 11.4258 22.2656V35.6012C11.4258 37.8103 13.2166 39.6012 15.4258 39.6012H31.758C33.9671 39.6012 35.758 37.8103 35.758 35.6012V22.2656C35.758 20.0565 33.9671 18.2656 31.758 18.2656Z" fill="white"/>
</g>
<defs>
<clipPath id="clip0_428_17979">
<rect width="25" height="33" fill="white" transform="translate(11 7)"/>
</clipPath>
</defs>
</svg>
