<svg width="46" height="46" viewBox="0 0 46 46" fill="none" xmlns="http://www.w3.org/2000/svg">
<rect width="46" height="46" rx="13" fill="#0328EE"/>
<g clip-path="url(#clip0_428_9103)">
<path opacity="0.4" d="M31.6318 16.7878C35.1004 16.7878 37.9237 19.7028 37.9237 23.2855V30.4071C37.9237 33.9811 35.1075 36.8888 31.646 36.8888H15.9148C12.4448 36.8888 9.62012 33.9753 9.62012 30.3925V23.2709C9.62012 19.697 12.4377 16.7878 15.9007 16.7878H17.231H31.6318Z" fill="white"/>
<path d="M24.5445 29.1578L28.6613 24.9577C29.0858 24.5236 29.0858 23.825 28.6584 23.3924C28.2311 22.9611 27.5419 22.9626 27.1173 23.3952L24.8629 25.6951V11.1068C24.8629 10.4959 24.3747 10 23.7718 10C23.1704 10 22.6836 10.4959 22.6836 11.1068V25.6951L20.4278 23.3952C20.0032 22.9626 19.314 22.9611 18.8867 23.3924C18.673 23.6094 18.5654 23.8926 18.5654 24.1772C18.5654 24.4589 18.673 24.7421 18.8838 24.9577L23.0006 29.1578C23.2058 29.3663 23.4831 29.4841 23.7718 29.4841C24.0619 29.4841 24.3393 29.3663 24.5445 29.1578Z" fill="white"/>
</g>
<defs>
<clipPath id="clip0_428_9103">
<rect width="29" height="27" fill="white" transform="translate(9 10)"/>
</clipPath>
</defs>
</svg>
