<svg width="46" height="46" viewBox="0 0 46 46" fill="none" xmlns="http://www.w3.org/2000/svg">
<rect width="46" height="46" rx="13" fill="#0328EE"/>
<g clip-path="url(#clip0_428_9110)">
<path d="M22.7717 28.1763C16.4226 28.1763 11.002 29.1913 11.002 33.2468C11.002 37.3007 16.3896 38.3523 22.7717 38.3523C29.1191 38.3523 34.5414 37.3373 34.5414 33.2818C34.5414 29.2263 29.1537 28.1763 22.7717 28.1763Z" fill="white"/>
<path opacity="0.4" d="M22.7721 24.3139C27.0949 24.3139 30.56 20.8041 30.56 16.4257C30.56 12.0472 27.0949 8.53589 22.7721 8.53589C18.4495 8.53589 14.9844 12.0472 14.9844 16.4257C14.9844 20.8041 18.4495 24.3139 22.7721 24.3139Z" fill="white"/>
</g>
<defs>
<clipPath id="clip0_428_9110">
<rect width="24" height="31" fill="white" transform="translate(11 8)"/>
</clipPath>
</defs>
</svg>
