<svg width="46" height="46" viewBox="0 0 46 46" fill="none" xmlns="http://www.w3.org/2000/svg">
<rect width="46" height="46" rx="13" fill="#0328EE"/>
<g clip-path="url(#clip0_428_9117)">
<path d="M35.544 15.6541H12.3955C10.1864 15.6541 8.39551 17.4449 8.39551 19.6541V30.7252C8.39551 32.9343 10.1864 34.7252 12.3955 34.7252H35.544C37.7531 34.7252 39.544 32.9343 39.544 30.7252V19.6541C39.544 17.4449 37.7531 15.6541 35.544 15.6541Z" fill="white" fill-opacity="0.4"/>
<path d="M32.3587 12.1638H10C7.79086 12.1638 6 13.9547 6 16.1638V27.2349C6 29.4441 7.79086 31.2349 10 31.2349H32.3587C34.5678 31.2349 36.3587 29.4441 36.3587 27.2349V16.1638C36.3587 13.9547 34.5678 12.1638 32.3587 12.1638Z" fill="white"/>
<path d="M21.1794 25.7448C23.4137 25.7448 25.225 23.9335 25.225 21.6992C25.225 19.4648 23.4137 17.6536 21.1794 17.6536C18.9451 17.6536 17.1338 19.4648 17.1338 21.6992C17.1338 23.9335 18.9451 25.7448 21.1794 25.7448Z" fill="#0328EE"/>
<path d="M12.0644 20.2926C13.2046 20.2926 14.1288 19.3684 14.1288 18.2282C14.1288 17.0881 13.2046 16.1638 12.0644 16.1638C10.9243 16.1638 10 17.0881 10 18.2282C10 19.3684 10.9243 20.2926 12.0644 20.2926Z" fill="#0328EE"/>
<path d="M30.2939 27.235C31.434 27.235 32.3583 26.3108 32.3583 25.1706C32.3583 24.0305 31.434 23.1062 30.2939 23.1062C29.1538 23.1062 28.2295 24.0305 28.2295 25.1706C28.2295 26.3108 29.1538 27.235 30.2939 27.235Z" fill="#0328EE"/>
</g>
<defs>
<clipPath id="clip0_428_9117">
<rect width="34" height="23" fill="white" transform="translate(6 12)"/>
</clipPath>
</defs>
</svg>
