<svg width="68" height="68" viewBox="0 0 68 68" fill="none" xmlns="http://www.w3.org/2000/svg">
<rect width="68" height="68" rx="20" fill="#0328EE"/>
<g opacity="0.84992" clip-path="url(#clip0_428_17909)">
<path opacity="0.4" d="M15.7512 22.5122H39.5484C40.6493 22.5122 41.5429 23.4052 41.5429 24.5055C41.5429 25.6057 40.6493 26.4988 39.5484 26.4988H15.7512C14.6503 26.4988 13.7568 25.6057 13.7568 24.5055C13.7568 23.4052 14.6503 22.5122 15.7512 22.5122Z" fill="white"/>
<mask id="mask0_428_17909" style="mask-type:alpha" maskUnits="userSpaceOnUse" x="37" y="14" width="18" height="22">
<path fill-rule="evenodd" clip-rule="evenodd" d="M37.4189 35.4653V14H54.58V35.4653H37.4189Z" fill="white"/>
</mask>
<g mask="url(#mask0_428_17909)">
<path d="M38.7659 14.1832C39.0173 14.1832 39.2651 14.2532 39.4842 14.3896L53.7364 23.3658C54.1279 23.6135 54.3668 24.0425 54.3668 24.5055C54.3668 24.9686 54.1279 25.3977 53.7364 25.6453L39.4842 34.6215C39.0693 34.8818 38.5449 34.898 38.1158 34.6592C37.6847 34.4223 37.4189 33.9718 37.4189 33.4818V15.5294C37.4189 15.0394 37.6847 14.5889 38.1158 14.3519C38.3186 14.2389 38.5432 14.1832 38.7659 14.1832Z" fill="white"/>
</g>
<path opacity="0.4" d="M52.319 46.059H28.5218C27.4208 46.059 26.5273 45.1659 26.5273 44.0657C26.5273 42.9653 27.4208 42.0724 28.5218 42.0724H52.319C53.4198 42.0724 54.3134 42.9653 54.3134 44.0657C54.3134 45.1659 53.4198 46.059 52.319 46.059Z" fill="white"/>
<mask id="mask1_428_17909" style="mask-type:alpha" maskUnits="userSpaceOnUse" x="13" y="33" width="18" height="22">
<path fill-rule="evenodd" clip-rule="evenodd" d="M30.5156 33.1058V54.5711H13.3545V33.1058H30.5156Z" fill="white"/>
</mask>
<g mask="url(#mask1_428_17909)">
<path d="M29.1683 54.3878C28.9169 54.3878 28.6691 54.3178 28.45 54.1815L14.1977 45.2053C13.8062 44.9575 13.5674 44.5286 13.5674 44.0655C13.5674 43.6025 13.8062 43.1734 14.1977 42.9258L28.45 33.9496C28.8648 33.6893 29.3893 33.6732 29.8184 33.9118C30.2495 34.1488 30.5153 34.5993 30.5153 35.0893V53.0418C30.5153 53.5317 30.2495 53.9822 29.8184 54.2191C29.6155 54.3322 29.391 54.3878 29.1683 54.3878Z" fill="white"/>
</g>
</g>
<defs>
<clipPath id="clip0_428_17909">
<rect width="42" height="41" fill="white" transform="translate(13 14)"/>
</clipPath>
</defs>
</svg>
