<svg width="46" height="46" viewBox="0 0 46 46" fill="none" xmlns="http://www.w3.org/2000/svg">
<rect width="46" height="46" rx="13" fill="#0328EE"/>
<g clip-path="url(#clip0_428_17997)">
<path opacity="0.4" d="M23.211 41.4325C21.8105 41.4325 20.4118 40.9007 19.3427 39.839L18.0132 38.5095C17.4978 37.9959 16.8075 37.7117 16.0754 37.7099H14.205C11.1817 37.7099 8.72126 35.2494 8.72126 32.2262V30.354C8.71944 29.6236 8.43532 28.9334 7.91991 28.4143L6.61227 27.1085C4.47049 24.9795 4.46139 21.4991 6.59223 19.3555L7.92174 18.0242C8.43532 17.5088 8.71944 16.8185 8.72126 16.0864V14.2178C8.72126 11.1927 11.1817 8.73226 14.205 8.73226H16.0772C16.8075 8.73226 17.496 8.44814 18.015 7.92909L19.3245 6.62327C21.4535 4.4815 24.9321 4.47057 27.0775 6.60323L28.407 7.93274C28.9242 8.44814 29.6126 8.73226 30.343 8.73226H32.2152C35.2384 8.73226 37.6989 11.1927 37.6989 14.2178V16.0882C37.7008 16.8185 37.9849 17.5088 38.5003 18.0278L39.8079 19.3355C40.8442 20.3663 41.4179 21.7395 41.4234 23.2056C41.427 24.6626 40.8661 26.034 39.8443 27.0703C39.8261 27.0885 39.8097 27.1085 39.7915 27.1249L38.4985 28.418C37.9849 28.9334 37.7008 29.6236 37.6989 30.3558V32.2262C37.6989 35.2494 35.2384 37.7099 32.2152 37.7099H30.343C29.6126 37.7117 28.9224 37.9959 28.4052 38.5113L27.0957 39.8189C26.0285 40.8934 24.6188 41.4325 23.211 41.4325Z" fill="white"/>
<path d="M13.937 28.4299C13.8782 28.4299 13.8292 28.4299 13.7901 28.4299C13.7607 28.4397 13.7215 28.4446 13.6725 28.4446C13.4374 28.4446 13.2513 28.3859 13.1142 28.2683C12.9868 28.1606 12.9232 28.0234 12.9232 27.8569C12.9232 27.6708 13.0309 27.4847 13.2464 27.2986C13.8635 27.0145 14.3925 26.657 14.8333 26.226C15.2741 25.795 15.6218 25.2759 15.8765 24.6685C15.661 24.7469 15.4455 24.8057 15.23 24.8449C15.0145 24.8742 14.7941 24.8889 14.5688 24.8889C14.0496 24.8889 13.599 24.8057 13.217 24.6392C12.8448 24.4726 12.5314 24.262 12.2767 24.0074C12.022 23.7429 11.831 23.449 11.7037 23.1258C11.5861 22.8025 11.5273 22.4842 11.5273 22.1707C11.5273 21.8083 11.6008 21.4459 11.7477 21.0835C11.8947 20.7112 12.1053 20.3831 12.3795 20.099C12.6636 19.8052 13.0113 19.5701 13.4227 19.3938C13.8439 19.2077 14.3288 19.1146 14.8773 19.1146C15.3867 19.1146 15.8275 19.2126 16.1997 19.4085C16.5719 19.6044 16.8756 19.864 17.1107 20.1872C17.3458 20.5006 17.5172 20.8631 17.6249 21.2745C17.7327 21.6859 17.7768 22.1071 17.7572 22.5381C17.7572 23.1748 17.669 23.787 17.4927 24.3747C17.3262 24.9526 17.0764 25.4963 16.7434 26.0056C16.4201 26.5052 16.0185 26.9606 15.5385 27.3721C15.0684 27.7835 14.5345 28.1361 13.937 28.4299ZM14.5541 23.6107C14.8577 23.6107 15.1614 23.547 15.4651 23.4196C15.7785 23.2923 16.0626 23.1307 16.3173 22.9348C16.2977 22.9348 16.2928 22.8907 16.3026 22.8025C16.3222 22.7046 16.3319 22.6115 16.3319 22.5234C16.3319 22.2491 16.3075 21.9846 16.2585 21.73C16.2095 21.4655 16.1262 21.2353 16.0087 21.0394C15.8912 20.8337 15.7344 20.6721 15.5385 20.5545C15.3426 20.4272 15.0977 20.3635 14.8039 20.3635C14.559 20.3635 14.3239 20.4125 14.0986 20.5104C13.8831 20.5986 13.6872 20.7259 13.5109 20.8925C13.3444 21.0492 13.2121 21.2402 13.1142 21.4655C13.0162 21.6908 12.9672 21.9308 12.9672 22.1854C12.9672 22.4107 13.0113 22.6115 13.0995 22.7879C13.1974 22.9544 13.3199 23.1013 13.4668 23.2286C13.6137 23.356 13.7803 23.4539 13.9664 23.5225C14.1623 23.5813 14.3582 23.6107 14.5541 23.6107Z" fill="white"/>
<path d="M21.0453 28.4299C20.9866 28.4299 20.9376 28.4299 20.8984 28.4299C20.869 28.4397 20.8298 28.4446 20.7809 28.4446C20.5458 28.4446 20.3597 28.3859 20.2225 28.2683C20.0952 28.1606 20.0315 28.0234 20.0315 27.8569C20.0315 27.6708 20.1393 27.4847 20.3548 27.2986C20.9719 27.0145 21.5008 26.657 21.9416 26.226C22.3824 25.795 22.7301 25.2759 22.9848 24.6685C22.7693 24.7469 22.5538 24.8057 22.3383 24.8449C22.1228 24.8742 21.9024 24.8889 21.6771 24.8889C21.158 24.8889 20.7074 24.8057 20.3254 24.6392C19.9532 24.4726 19.6397 24.262 19.385 24.0074C19.1304 23.7429 18.9393 23.449 18.812 23.1258C18.6945 22.8025 18.6357 22.4842 18.6357 22.1707C18.6357 21.8083 18.7092 21.4459 18.8561 21.0835C19.003 20.7112 19.2136 20.3831 19.4879 20.099C19.7719 19.8052 20.1197 19.5701 20.5311 19.3938C20.9523 19.2077 21.4371 19.1146 21.9857 19.1146C22.495 19.1146 22.9358 19.2126 23.3081 19.4085C23.6803 19.6044 23.9839 19.864 24.219 20.1872C24.4541 20.5006 24.6255 20.8631 24.7333 21.2745C24.841 21.6859 24.8851 22.1071 24.8655 22.5381C24.8655 23.1748 24.7773 23.787 24.601 24.3747C24.4345 24.9526 24.1847 25.4963 23.8517 26.0056C23.5284 26.5052 23.1268 26.9606 22.6469 27.3721C22.1767 27.7835 21.6429 28.1361 21.0453 28.4299ZM21.6624 23.6107C21.9661 23.6107 22.2697 23.547 22.5734 23.4196C22.8869 23.2923 23.1709 23.1307 23.4256 22.9348C23.406 22.9348 23.4011 22.8907 23.4109 22.8025C23.4305 22.7046 23.4403 22.6115 23.4403 22.5234C23.4403 22.2491 23.4158 21.9846 23.3668 21.73C23.3178 21.4655 23.2346 21.2353 23.117 21.0394C22.9995 20.8337 22.8428 20.6721 22.6469 20.5545C22.451 20.4272 22.2061 20.3635 21.9122 20.3635C21.6673 20.3635 21.4323 20.4125 21.207 20.5104C20.9915 20.5986 20.7956 20.7259 20.6192 20.8925C20.4527 21.0492 20.3205 21.2402 20.2225 21.4655C20.1246 21.6908 20.0756 21.9308 20.0756 22.1854C20.0756 22.4107 20.1197 22.6115 20.2078 22.7879C20.3058 22.9544 20.4282 23.1013 20.5752 23.2286C20.7221 23.356 20.8886 23.4539 21.0747 23.5225C21.2706 23.5813 21.4665 23.6107 21.6624 23.6107Z" fill="white"/>
<path d="M32.8388 18.1449C32.9857 18.0077 33.1718 17.9392 33.3971 17.9392C33.5832 17.9392 33.74 17.9979 33.8673 18.1155C34.0044 18.233 34.073 18.38 34.073 18.5563C34.073 18.6053 34.0681 18.6542 34.0583 18.7032C34.0485 18.7424 34.0338 18.7865 34.0142 18.8354L30.8552 23.3756L27.4759 28.2095C27.3877 28.3271 27.2849 28.4055 27.1673 28.4446C27.0498 28.4838 26.942 28.5034 26.8441 28.5034C26.658 28.5034 26.4963 28.4495 26.3592 28.3418C26.2319 28.234 26.1682 28.0871 26.1682 27.901C26.1682 27.8324 26.178 27.7639 26.1976 27.6953C26.2172 27.6169 26.2515 27.5386 26.3004 27.4602C26.8882 26.6374 27.4465 25.844 27.9754 25.0799C28.5044 24.3159 29.0333 23.5568 29.5623 22.8025C30.0814 22.0581 30.6104 21.3039 31.1491 20.5398C31.6878 19.7758 32.2462 18.9824 32.8241 18.1596L32.8388 18.1449ZM25.4482 20.2901C25.4678 19.9276 25.5462 19.6142 25.6833 19.3497C25.8205 19.0852 25.9919 18.8648 26.1976 18.6885C26.4033 18.5122 26.6384 18.3849 26.9028 18.3065C27.1673 18.2183 27.4318 18.1743 27.6963 18.1743C27.9705 18.1743 28.2399 18.2183 28.5044 18.3065C28.7689 18.3947 29.0039 18.5269 29.2096 18.7032C29.4251 18.8795 29.5966 19.0999 29.7239 19.3644C29.8512 19.6191 29.9149 19.9129 29.9149 20.246C29.9149 20.579 29.8463 20.8827 29.7092 21.1569C29.5819 21.4312 29.4104 21.6712 29.1949 21.8769C28.9795 22.0728 28.7346 22.2246 28.4603 22.3324C28.186 22.4401 27.902 22.494 27.6081 22.494C27.3534 22.494 27.0988 22.445 26.8441 22.3471C26.5992 22.2491 26.3739 22.1071 26.1682 21.921C25.9723 21.7349 25.8058 21.5047 25.6686 21.2304C25.5413 20.9561 25.4678 20.6427 25.4482 20.2901ZM30.5026 26.2407C30.5222 25.8881 30.5957 25.5844 30.723 25.3297C30.8601 25.0653 31.0316 24.8498 31.2373 24.6832C31.443 24.5069 31.6732 24.3796 31.9278 24.3012C32.1825 24.2131 32.4421 24.169 32.7066 24.169C32.971 24.169 33.2306 24.2131 33.4853 24.3012C33.7498 24.3894 33.9848 24.5216 34.1905 24.6979C34.406 24.8645 34.5775 25.0751 34.7048 25.3297C34.8321 25.5746 34.8958 25.8636 34.8958 26.1966C34.8958 26.5394 34.8321 26.848 34.7048 27.1223C34.5873 27.3965 34.4256 27.6267 34.2199 27.8128C34.0142 27.9989 33.7742 28.141 33.5 28.2389C33.2355 28.3369 32.9612 28.3859 32.6772 28.3859C32.4323 28.3859 32.1874 28.3418 31.9425 28.2536C31.6976 28.1753 31.4724 28.0479 31.2667 27.8716C31.061 27.6953 30.8895 27.4749 30.7524 27.2104C30.6153 26.9362 30.532 26.6129 30.5026 26.2407ZM27.6375 19.4379C27.52 19.4379 27.4171 19.4672 27.3289 19.526C27.2506 19.575 27.182 19.6436 27.1232 19.7317C27.0645 19.8101 27.0155 19.9031 26.9763 20.0109C26.9469 20.1088 26.9224 20.2068 26.9028 20.3047C26.9322 20.6084 27.0253 20.8288 27.182 20.9659C27.3387 21.1031 27.5151 21.1716 27.711 21.1716C27.8971 21.1716 28.0685 21.0982 28.2252 20.9512C28.3917 20.8043 28.475 20.5839 28.475 20.2901C28.475 20.055 28.3868 19.8542 28.2105 19.6876C28.044 19.5211 27.853 19.4379 27.6375 19.4379ZM32.6919 25.462C32.4372 25.462 32.256 25.5452 32.1482 25.7117C32.0503 25.8783 31.9866 26.0546 31.9572 26.2407C31.9866 26.5248 32.0748 26.7403 32.2217 26.8872C32.3686 27.0243 32.54 27.0929 32.7359 27.0929C32.9025 27.0929 33.0641 27.0243 33.2208 26.8872C33.3775 26.7403 33.4559 26.5248 33.4559 26.2407C33.4559 25.9958 33.3775 25.8048 33.2208 25.6677C33.0641 25.5305 32.8878 25.462 32.6919 25.462Z" fill="white"/>
</g>
<defs>
<clipPath id="clip0_428_17997">
<rect width="37" height="37" fill="white" transform="translate(5 5)"/>
</clipPath>
</defs>
</svg>
