<svg width="46" height="46" viewBox="0 0 46 46" fill="none" xmlns="http://www.w3.org/2000/svg">
<rect width="46" height="46" rx="13" fill="#0328EE"/>
<g clip-path="url(#clip0_428_18006)">
<path d="M23.2427 7.88916C14.3211 7.88916 7.85645 15.1677 7.85645 23.2447C7.85645 25.8244 8.60887 28.4809 9.92944 30.9071C10.1751 31.3063 10.2058 31.813 10.0369 32.2891L9.00811 35.7287C8.77778 36.5579 9.48413 37.1721 10.2673 36.9264L13.3691 36.0051C14.2136 35.7287 14.8739 36.0819 15.6586 36.5579C17.9005 37.8785 20.6937 38.5541 23.212 38.5541C30.8283 38.5541 38.5675 32.6729 38.5675 23.1986C38.5675 15.0295 31.9646 7.88916 23.2427 7.88916Z" fill="white"/>
<path fill-rule="evenodd" clip-rule="evenodd" d="M16.1022 25.2255C15.0273 25.2255 14.1367 24.3349 14.1367 23.26C14.1367 22.1698 15.012 21.2945 16.1022 21.2945C17.1924 21.2945 18.0677 22.1698 18.0677 23.26C18.0677 24.3349 17.1924 25.2101 16.1022 25.2255ZM23.1816 25.2257C22.0914 25.2104 21.2161 24.3351 21.2161 23.2449C21.2161 22.17 22.1067 21.2794 23.1816 21.2947C24.2719 21.2947 25.1471 22.17 25.1471 23.2602C25.1471 24.3351 24.2719 25.2257 23.1816 25.2257ZM28.2948 23.2604C28.2948 24.3353 29.17 25.2259 30.2603 25.2259C31.3505 25.2259 32.2258 24.3353 32.2258 23.2604C32.2258 22.1702 31.3505 21.2949 30.2603 21.2949C29.17 21.2949 28.2948 22.1702 28.2948 23.2604Z" fill="#0328EE"/>
</g>
<defs>
<clipPath id="clip0_428_18006">
<rect width="32" height="32" fill="white" transform="translate(7 7)"/>
</clipPath>
</defs>
</svg>
