<svg width="68" height="68" viewBox="0 0 68 68" fill="none" xmlns="http://www.w3.org/2000/svg">
<rect width="68" height="68" rx="20" fill="#0328EE"/>
<g opacity="0.84992">
<path d="M48.697 19.5031C46.2004 16.491 42.8313 14.3197 39.0497 13.2855C35.2682 12.2514 31.2583 12.4048 27.5674 13.7249C23.8767 15.045 20.6848 17.4674 18.4275 20.6614C16.1702 23.8556 14.9576 27.6656 14.9551 31.5716V36.7537" stroke="white" stroke-opacity="0.4" stroke-width="4.92496" stroke-linecap="round" stroke-linejoin="round"/>
<path d="M21.0117 47.7568C23.6299 50.5201 27.0206 52.4369 30.7448 53.259C34.4691 54.0811 38.3554 53.7707 41.9005 52.368C45.4455 50.9651 48.4862 48.5346 50.6288 45.3911C52.7713 42.2475 53.9172 38.5357 53.9178 34.7361V31.286" stroke="white" stroke-opacity="0.4" stroke-width="4.92496" stroke-linecap="round" stroke-linejoin="round"/>
<path d="M23.58 28.2664C23.5691 28.4742 23.5002 28.676 23.3774 28.8512L15.3063 40.2401C15.0836 40.5529 14.7171 40.7317 14.3327 40.7116C13.9483 40.6916 13.6026 40.4755 13.414 40.1413L6.58221 27.9744C6.3842 27.6204 6.39359 27.1863 6.61042 26.8419C6.82585 26.496 7.21139 26.2958 7.61816 26.3171L22.5211 27.095C22.9279 27.1163 23.2903 27.3554 23.4683 27.7219C23.5533 27.8945 23.5898 28.0824 23.58 28.2664Z" fill="white"/>
<path d="M44.8513 38.6356C44.8584 38.4304 44.9229 38.2301 45.041 38.0553L52.8072 26.6804C53.0215 26.3679 53.38 26.1852 53.7596 26.1984C54.1392 26.2116 54.4841 26.4187 54.6759 26.7453L61.6265 38.6321C61.8281 38.9781 61.8263 39.4065 61.6183 39.75C61.4117 40.095 61.0348 40.299 60.6332 40.285L45.9163 39.7731C45.5146 39.7592 45.1529 39.5294 44.971 39.1709C44.8841 39.0021 44.8449 38.8173 44.8513 38.6356Z" fill="white"/>
</g>
</svg>
