<svg width="46" height="46" viewBox="0 0 46 46" fill="none" xmlns="http://www.w3.org/2000/svg">
<rect width="46" height="46" rx="13" fill="#0328EE"/>
<g clip-path="url(#clip0_428_17990)">
<path d="M23.3524 39.4428C23.1515 39.4428 22.9506 39.3967 22.7694 39.3029L16.9278 36.279C15.2703 35.4201 13.9736 34.4561 12.9611 33.3331C10.745 30.8772 9.51207 27.7245 9.49248 24.4541L9.42389 13.6901C9.41572 12.4478 10.2176 11.3328 11.4162 10.9128L22.1423 7.17323C22.7792 6.94576 23.4896 6.94258 24.1379 7.16209L34.9047 10.7745C36.1099 11.1769 36.9248 12.284 36.9313 13.5247L36.9999 24.2966C37.0212 27.5622 35.8307 30.7276 33.6489 33.2107C32.6478 34.3496 31.3626 35.3278 29.7213 36.2027L23.9321 39.2949C23.7525 39.3919 23.5532 39.4412 23.3524 39.4428Z" fill="white"/>
<path d="M22.107 26.9863C21.7934 26.9879 21.4799 26.8749 21.2382 26.6427L18.1288 23.6523C17.6487 23.1878 17.6438 22.4338 18.119 21.9662C18.5942 21.4969 19.37 21.4922 19.8517 21.955L22.089 24.1056L27.5516 18.7196C28.0285 18.2504 28.8042 18.2456 29.2843 18.7085C29.7661 19.173 29.771 19.9285 29.2958 20.3946L22.9709 26.6316C22.7324 26.867 22.4205 26.9847 22.107 26.9863Z" fill="#0328EE"/>
</g>
<defs>
<clipPath id="clip0_428_17990">
<rect width="28" height="33" fill="white" transform="translate(9 7)"/>
</clipPath>
</defs>
</svg>
