<svg width="359" height="216" viewBox="0 0 359 216" fill="none" xmlns="http://www.w3.org/2000/svg">
<path d="M31.8008 9.11616C31.8008 4.08124 35.8824 -0.000366211 40.9173 -0.000366211H317.62C322.654 -0.000366211 326.736 4.08124 326.736 9.11616V201.235H31.8008V9.11616Z" fill="#23213B"/>
<path d="M43.0876 213.947C42.9894 214.192 42.6751 214.712 42.2037 214.83C42.1546 215.173 41.9385 215.86 41.467 215.86H21.2837C20.8122 215.86 20.5961 215.173 20.547 214.83C20.0756 214.712 19.7613 214.192 19.6631 213.947H43.0876Z" fill="#23213B"/>
<path d="M338.752 213.947C338.654 214.192 338.339 214.712 337.868 214.83C337.819 215.173 337.603 215.86 337.131 215.86H316.948C316.476 215.86 316.26 215.173 316.211 214.83C315.74 214.712 315.426 214.192 315.327 213.947H338.752Z" fill="#23213B"/>
<path d="M358.294 202.466V201.09H0.00195312V202.466C0.00195312 206.484 0.00195312 208.494 0.772707 210.029C1.45068 211.379 2.53249 212.477 3.8631 213.165C5.37578 213.947 7.356 213.947 11.3165 213.947H346.98C350.94 213.947 352.92 213.947 354.433 213.165C355.764 212.477 356.846 211.379 357.523 210.029C358.294 208.494 358.294 206.484 358.294 202.466Z" fill="#1C1B2D"/>
<path d="M148.075 201.09H210.393C210.393 203.774 208.218 205.949 205.535 205.949H152.933C150.25 205.949 148.075 203.774 148.075 201.09Z" fill="#353447"/>
<g clip-path="url(#clip0_428_305)">
<path d="M40.6605 5.09521C38.3767 5.09521 36.5254 6.93932 36.5254 9.21413V189.858H322.142V9.21414C322.142 6.93932 320.29 5.09521 318.007 5.09521H194.195C193.793 5.09521 193.467 5.42102 193.467 5.82293V8.73377C193.467 9.40361 192.924 9.94662 192.253 9.94662H166.28C165.475 9.94662 164.823 9.29501 164.823 8.4912V5.82293C164.823 5.42102 164.497 5.09521 164.095 5.09521H40.6605Z" fill="#353447"/>
<g clip-path="url(#clip1_428_305)">
<path d="M14.8935 -15C12.1909 -15 10 -12.8142 10 -10.1178V204H348V-10.1178C348 -12.8142 345.809 -15 343.107 -15H196.588C196.112 -15 195.726 -14.6138 195.726 -14.1374V-10.6872C195.726 -9.89325 195.083 -9.24962 194.29 -9.24962H163.552C162.6 -9.24962 161.828 -10.022 161.828 -10.9747V-14.1374C161.828 -14.6138 161.443 -15 160.967 -15H14.8935Z" fill="#080356"/>
<g clip-path="url(#clip2_428_305)">
<rect x="2.14453" y="-230.101" width="354.138" height="561.581" rx="56" fill="url(#paint0_radial_428_305)"/>
<path opacity="0.4" d="M354.473 90.845L200.742 169.355C186.604 176.575 177.705 191.12 177.705 207.007V309.439" stroke="url(#paint1_linear_428_305)"/>
<path opacity="0.4" d="M6.06641 54.0101L208.974 155.131C217.17 159.215 222.35 167.59 222.35 176.754V306.721" stroke="url(#paint2_linear_428_305)"/>
<path opacity="0.4" d="M132.458 -13.923L342.293 90.5226C350.494 94.6046 355.68 102.982 355.68 112.149V330.573" stroke="url(#paint3_linear_428_305)"/>
<path opacity="0.4" d="M44.376 27.7427L254.211 132.188C262.412 136.27 267.598 144.647 267.598 153.815V331.479" stroke="url(#paint4_linear_428_305)"/>
<path opacity="0.0946448" d="M44.376 27.7427L254.211 132.188C262.412 136.27 267.598 144.647 267.598 153.815V331.479" stroke="url(#paint5_linear_428_305)" stroke-dasharray="0.91 1"/>
<path opacity="0.4" d="M2.74805 99.6008L153.297 169.748C168.186 176.685 177.706 191.631 177.706 208.069V227.617" stroke="url(#paint6_linear_428_305)"/>
<path opacity="0.4" d="M87.8135 5.40015L297.649 109.846C305.85 113.928 311.035 122.305 311.035 131.473V330.573" stroke="url(#paint7_linear_428_305)"/>
<path opacity="0.840429" d="M87.8135 5.40015L297.649 109.846C305.85 113.928 311.035 122.305 311.035 131.473V330.573" stroke="url(#paint8_linear_428_305)" stroke-dasharray="0.16 1"/>
<path opacity="0.4" d="M352.663 50.689L147.456 155.2C139.364 159.322 134.268 167.64 134.268 176.728V331.479" stroke="url(#paint9_linear_428_305)"/>
<path opacity="0.4" d="M221.747 -13.923L16.5397 90.5884C8.44766 94.7097 3.35156 103.028 3.35156 112.116V266.867" stroke="url(#paint10_linear_428_305)"/>
<path opacity="0.4" d="M265.788 5.40015L60.5807 109.911C52.4887 114.033 47.3926 122.351 47.3926 131.439V286.19" stroke="url(#paint11_linear_428_305)"/>
<path opacity="0.4" d="M308.622 27.7427L103.415 132.254C95.3227 136.375 90.2266 144.694 90.2266 153.781V292.531" stroke="url(#paint12_linear_428_305)"/>
<path opacity="0.997892" d="M308.622 27.7427L103.415 132.254C95.3227 136.375 90.2266 144.694 90.2266 153.781V292.531" stroke="url(#paint13_linear_428_305)" stroke-dasharray="0 1"/>
<path opacity="0.4" d="M134.267 72.4275L89.0195 95.3738L132.759 117.112L178.007 94.1661L134.267 72.4275Z" fill="white" fill-opacity="0.1"/>
<path opacity="0.4" d="M263.072 50.991C249.599 57.9352 222.47 71.8842 221.746 72.1257L266.994 94.4682L308.018 73.6353L263.072 50.991Z" fill="white" fill-opacity="0.1"/>
<path opacity="0.4" d="M81.7803 185.348C84.5301 185.348 132.754 208.546 165.341 224.441C173.374 228.359 182.725 228.534 190.889 224.897L279.663 185.348" stroke="url(#paint14_linear_428_305)"/>
<path d="M61.4877 67.7814L61.0329 66.8904L61.0291 66.8924L61.4877 67.7814ZM46.9339 74.1723C46.4434 74.4257 46.2511 75.0291 46.5043 75.5201C46.7576 76.0111 47.3605 76.2038 47.8511 75.9504L46.9339 74.1723ZM79.0051 58.7526L78.5457 57.864L78.5443 57.8647L79.0051 58.7526ZM70.199 63.3297L70.6537 64.2207L70.6598 64.2176L70.199 63.3297ZM61.0291 66.8924L46.9339 74.1723L47.8511 75.9504L61.9462 68.6705L61.0291 66.8924ZM96.4038 48.6174L78.5457 57.864L79.4646 59.6411L97.3227 50.3946L96.4038 48.6174ZM78.5443 57.8647L69.7381 62.4419L70.6598 64.2176L79.466 59.6404L78.5443 57.8647ZM69.7442 62.4387L61.033 66.8904L61.9424 68.6724L70.6537 64.2207L69.7442 62.4387Z" fill="url(#paint15_linear_428_305)" fill-opacity="0.8"/>
<path d="M349.034 96.7687C349.471 97.1066 350.099 97.0264 350.437 96.5895C350.775 96.1526 350.695 95.5246 350.258 95.1867L349.034 96.7687ZM286.725 63.0443L286.282 63.941L286.284 63.9417L286.725 63.0443ZM303.919 71.4982L304.363 70.602L304.36 70.6009L303.919 71.4982ZM346.007 93.1629L345.395 93.954L346.007 93.1629ZM345.395 93.954L349.034 96.7687L350.258 95.1867L346.619 92.3719L345.395 93.954ZM251.468 46.7548L286.282 63.941L287.168 62.1477L252.354 44.9615L251.468 46.7548ZM286.284 63.9417L303.478 72.3956L304.36 70.6009L287.166 62.1469L286.284 63.9417ZM303.476 72.3945L339.17 90.0606L340.058 88.2682L304.363 70.602L303.476 72.3945ZM346.619 92.3719C344.573 90.7899 342.375 89.4152 340.058 88.2682L339.17 90.0606C341.369 91.1489 343.454 92.453 345.395 93.954L346.619 92.3719Z" fill="url(#paint16_linear_428_305)" fill-opacity="0.4"/>
</g>
<rect x="1.64453" y="-230.601" width="355.138" height="562.581" rx="56.5" stroke="white" stroke-opacity="0.15"/>
</g>
</g>
<defs>
<radialGradient id="paint0_radial_428_305" cx="0" cy="0" r="1" gradientUnits="userSpaceOnUse" gradientTransform="translate(179.515 -210.5) rotate(90.0815) scale(1695.52 1581.23)">
<stop offset="0.13205" stop-color="#010214"/>
<stop offset="0.279167" stop-color="#26008A"/>
<stop offset="0.341667" stop-color="white"/>
</radialGradient>
<linearGradient id="paint1_linear_428_305" x1="129.743" y1="270.792" x2="354.027" y2="92.5536" gradientUnits="userSpaceOnUse">
<stop stop-color="white" stop-opacity="0"/>
<stop offset="0.604167" stop-color="white"/>
<stop offset="1" stop-color="white" stop-opacity="0"/>
</linearGradient>
<linearGradient id="paint2_linear_428_305" x1="244.371" y1="296.153" x2="1.60189" y2="48.2664" gradientUnits="userSpaceOnUse">
<stop stop-color="white" stop-opacity="0"/>
<stop offset="0.604167" stop-color="white"/>
<stop offset="1" stop-color="white" stop-opacity="0"/>
</linearGradient>
<linearGradient id="paint3_linear_428_305" x1="372.021" y1="131.654" x2="116.015" y2="25.8695" gradientUnits="userSpaceOnUse">
<stop stop-color="white" stop-opacity="0"/>
<stop offset="0.302083" stop-color="white"/>
<stop offset="0.796875" stop-color="white" stop-opacity="0"/>
</linearGradient>
<linearGradient id="paint4_linear_428_305" x1="317.973" y1="164.515" x2="37.8483" y2="42.7612" gradientUnits="userSpaceOnUse">
<stop stop-color="white" stop-opacity="0"/>
<stop offset="0.604167" stop-color="white"/>
<stop offset="1" stop-color="white" stop-opacity="0"/>
</linearGradient>
<linearGradient id="paint5_linear_428_305" x1="317.973" y1="164.515" x2="37.8483" y2="42.7612" gradientUnits="userSpaceOnUse">
<stop stop-color="white" stop-opacity="0"/>
<stop offset="0.604167" stop-color="white"/>
<stop offset="1" stop-color="white" stop-opacity="0"/>
</linearGradient>
<linearGradient id="paint6_linear_428_305" x1="177.706" y1="180.215" x2="33.6255" y2="110.211" gradientUnits="userSpaceOnUse">
<stop offset="0.372633" stop-color="white"/>
<stop offset="1" stop-color="white" stop-opacity="0"/>
</linearGradient>
<linearGradient id="paint7_linear_428_305" x1="327.376" y1="142.812" x2="75.8597" y2="32.7061" gradientUnits="userSpaceOnUse">
<stop stop-color="white" stop-opacity="0"/>
<stop offset="0.604167" stop-color="white"/>
<stop offset="1" stop-color="white" stop-opacity="0"/>
</linearGradient>
<linearGradient id="paint8_linear_428_305" x1="327.376" y1="142.812" x2="75.8597" y2="32.7061" gradientUnits="userSpaceOnUse">
<stop stop-color="white" stop-opacity="0"/>
<stop offset="0.604167" stop-color="white"/>
<stop offset="1" stop-color="white" stop-opacity="0"/>
</linearGradient>
<linearGradient id="paint9_linear_428_305" x1="111.644" y1="291.927" x2="354.665" y2="52.7236" gradientUnits="userSpaceOnUse">
<stop stop-color="white" stop-opacity="0"/>
<stop offset="0.583333" stop-color="white"/>
<stop offset="1" stop-color="white" stop-opacity="0"/>
</linearGradient>
<linearGradient id="paint10_linear_428_305" x1="-12.6359" y1="104.734" x2="222.703" y2="-11.9954" gradientUnits="userSpaceOnUse">
<stop stop-color="white" stop-opacity="0"/>
<stop offset="0.302083" stop-color="white"/>
<stop offset="0.796875" stop-color="white" stop-opacity="0"/>
</linearGradient>
<linearGradient id="paint11_linear_428_305" x1="31.4051" y1="124.057" x2="266.744" y2="7.32771" gradientUnits="userSpaceOnUse">
<stop stop-color="white" stop-opacity="0"/>
<stop offset="0.604167" stop-color="white"/>
<stop offset="1" stop-color="white" stop-opacity="0"/>
</linearGradient>
<linearGradient id="paint12_linear_428_305" x1="59.7598" y1="151.532" x2="309.618" y2="29.7872" gradientUnits="userSpaceOnUse">
<stop stop-color="white" stop-opacity="0"/>
<stop offset="0.604167" stop-color="white"/>
<stop offset="1" stop-color="white" stop-opacity="0"/>
</linearGradient>
<linearGradient id="paint13_linear_428_305" x1="59.7598" y1="151.532" x2="309.618" y2="29.7872" gradientUnits="userSpaceOnUse">
<stop stop-color="white" stop-opacity="0"/>
<stop offset="0.604167" stop-color="white"/>
<stop offset="1" stop-color="white" stop-opacity="0"/>
</linearGradient>
<linearGradient id="paint14_linear_428_305" x1="180.722" y1="185.348" x2="180.722" y2="230.636" gradientUnits="userSpaceOnUse">
<stop stop-color="white" stop-opacity="0"/>
<stop offset="1" stop-color="white"/>
</linearGradient>
<linearGradient id="paint15_linear_428_305" x1="41.322" y1="51.4038" x2="96.7386" y2="50.4266" gradientUnits="userSpaceOnUse">
<stop stop-color="white"/>
<stop offset="1" stop-color="white" stop-opacity="0"/>
</linearGradient>
<linearGradient id="paint16_linear_428_305" x1="319.141" y1="131.461" x2="250.691" y2="47.2048" gradientUnits="userSpaceOnUse">
<stop stop-color="white"/>
<stop offset="1" stop-color="white" stop-opacity="0"/>
</linearGradient>
<clipPath id="clip0_428_305">
<rect width="285.616" height="184.763" fill="white" transform="translate(36.5254 5.09521)"/>
</clipPath>
<clipPath id="clip1_428_305">
<rect width="338" height="219" fill="white" transform="translate(10 -15)"/>
</clipPath>
<clipPath id="clip2_428_305">
<rect x="2.14453" y="-230.101" width="354.138" height="561.581" rx="56" fill="white"/>
</clipPath>
</defs>
</svg>
